<svg width="24" height="23" viewBox="0 0 24 23" fill="none" xmlns="http://www.w3.org/2000/svg">
<circle cx="12.124" cy="11.4412" r="11.3638" fill="white"/>
<path d="M17.3478 5.0105H6.37166C6.19177 5.0105 6.01924 5.08196 5.89203 5.20917C5.76482 5.33638 5.69336 5.5089 5.69336 5.6888V16.665C5.69336 16.8449 5.76482 17.0174 5.89203 17.1446C6.01924 17.2718 6.19177 17.3433 6.37166 17.3433H12.2791V12.5643H10.6758V10.7144H12.2791V9.32697C12.2459 9.00124 12.2843 8.67218 12.3917 8.36288C12.4992 8.05358 12.673 7.77153 12.9009 7.53651C13.1289 7.30148 13.4055 7.11918 13.7114 7.00239C14.0173 6.8856 14.345 6.83714 14.6716 6.86042C15.1516 6.85746 15.6313 6.88217 16.1084 6.93441V8.59934H15.1279C14.351 8.59934 14.203 8.96932 14.203 9.5058V10.6959H16.0529L15.8124 12.5458H14.203V17.3433H17.3478C17.4369 17.3433 17.5251 17.3257 17.6074 17.2916C17.6897 17.2576 17.7645 17.2076 17.8275 17.1446C17.8905 17.0816 17.9404 17.0068 17.9745 16.9246C18.0086 16.8423 18.0261 16.7541 18.0261 16.665V5.6888C18.0261 5.59973 18.0086 5.51152 17.9745 5.42923C17.9404 5.34693 17.8905 5.27215 17.8275 5.20917C17.7645 5.14618 17.6897 5.09622 17.6074 5.06213C17.5251 5.02804 17.4369 5.0105 17.3478 5.0105Z" fill="#1A1A1A"/>
</svg>
