<svg width="24" height="23" viewBox="0 0 24 23" fill="none" xmlns="http://www.w3.org/2000/svg">
<circle cx="12.292" cy="11.4412" r="11.3638" fill="white"/>
<path d="M9.06791 4.65796H14.9876C17.2428 4.65796 19.0751 6.49026 19.0751 8.7454V14.6651C19.0751 15.7492 18.6444 16.7888 17.8779 17.5554C17.1114 18.3219 16.0717 18.7526 14.9876 18.7526H9.06791C6.81277 18.7526 4.98047 16.9203 4.98047 14.6651V8.7454C4.98047 7.66134 5.41111 6.62168 6.17765 5.85514C6.94419 5.0886 7.98385 4.65796 9.06791 4.65796ZM8.92696 6.06742C8.2541 6.06742 7.60879 6.33471 7.13301 6.8105C6.65722 7.28628 6.38993 7.93159 6.38993 8.60445V14.8061C6.38993 16.2085 7.52455 17.3431 8.92696 17.3431H15.1286C15.8015 17.3431 16.4468 17.0758 16.9225 16.6C17.3983 16.1242 17.6656 15.4789 17.6656 14.8061V8.60445C17.6656 7.20204 16.531 6.06742 15.1286 6.06742H8.92696ZM15.7276 7.12452C15.9612 7.12452 16.1853 7.21733 16.3505 7.38253C16.5157 7.54773 16.6085 7.7718 16.6085 8.00543C16.6085 8.23906 16.5157 8.46313 16.3505 8.62833C16.1853 8.79353 15.9612 8.88634 15.7276 8.88634C15.494 8.88634 15.2699 8.79353 15.1047 8.62833C14.9395 8.46313 14.8467 8.23906 14.8467 8.00543C14.8467 7.7718 14.9395 7.54773 15.1047 7.38253C15.2699 7.21733 15.494 7.12452 15.7276 7.12452ZM12.0278 8.18161C12.9623 8.18161 13.8586 8.55285 14.5194 9.21367C15.1802 9.87448 15.5514 10.7707 15.5514 11.7053C15.5514 12.6398 15.1802 13.536 14.5194 14.1969C13.8586 14.8577 12.9623 15.2289 12.0278 15.2289C11.0932 15.2289 10.197 14.8577 9.53618 14.1969C8.87536 13.536 8.50412 12.6398 8.50412 11.7053C8.50412 10.7707 8.87536 9.87448 9.53618 9.21367C10.197 8.55285 11.0932 8.18161 12.0278 8.18161ZM12.0278 9.59107C11.4671 9.59107 10.9293 9.81382 10.5328 10.2103C10.1363 10.6068 9.91358 11.1445 9.91358 11.7053C9.91358 12.266 10.1363 12.8037 10.5328 13.2002C10.9293 13.5967 11.4671 13.8195 12.0278 13.8195C12.5885 13.8195 13.1262 13.5967 13.5227 13.2002C13.9192 12.8037 14.142 12.266 14.142 11.7053C14.142 11.1445 13.9192 10.6068 13.5227 10.2103C13.1262 9.81382 12.5885 9.59107 12.0278 9.59107Z" fill="#1A1A1A"/>
</svg>
