<svg width="377" height="377" viewBox="0 0 377 377" fill="none" xmlns="http://www.w3.org/2000/svg">
<path d="M188.333 54C155.134 54 128.125 81.0095 128.125 114.208V150.333H116.083C109.696 150.333 103.57 152.871 99.0538 157.387C94.5373 161.904 92 168.029 92 174.417V270.75C92 277.137 94.5373 283.263 99.0538 287.779C103.57 292.296 109.696 294.833 116.083 294.833H260.583C266.971 294.833 273.096 292.296 277.613 287.779C282.129 283.263 284.667 277.137 284.667 270.75V174.417C284.667 168.029 282.129 161.904 277.613 157.387C273.096 152.871 266.971 150.333 260.583 150.333H248.542V114.208C248.542 81.0095 221.532 54 188.333 54ZM152.208 114.208C152.208 94.2914 168.416 78.0833 188.333 78.0833C208.25 78.0833 224.458 94.2914 224.458 114.208V150.333H152.208V114.208ZM200.375 243.331V270.75H176.292V243.331C172.082 240.92 168.701 237.29 166.596 232.919C164.491 228.549 163.76 223.642 164.499 218.848C165.238 214.053 167.414 209.595 170.738 206.061C174.062 202.528 178.379 200.085 183.119 199.054C186.64 198.275 190.292 198.297 193.803 199.118C197.315 199.938 200.598 201.536 203.409 203.794C206.221 206.053 208.49 208.913 210.049 212.165C211.608 215.417 212.417 218.977 212.417 222.583C212.41 226.795 211.293 230.93 209.179 234.573C207.065 238.215 204.028 241.236 200.375 243.331Z" fill="#FF5B5B"/>
<circle cx="188.5" cy="188.5" r="178.5" stroke="#FF5B5B" stroke-width="20"/>
</svg>
