<svg width="339" height="71" viewBox="0 0 339 71" fill="none" xmlns="http://www.w3.org/2000/svg">
<path d="M34.8099 9.80566C28.7815 9.80566 23.8769 14.7102 23.8769 20.7386V27.2984H21.6903C20.5305 27.2984 19.4182 27.7592 18.598 28.5793C17.7779 29.3994 17.3171 30.5118 17.3171 31.6716V49.1644C17.3171 50.3242 17.7779 51.4365 18.598 52.2567C19.4182 53.0768 20.5305 53.5375 21.6903 53.5375H47.9295C49.0893 53.5375 50.2016 53.0768 51.0218 52.2567C51.8419 51.4365 52.3027 50.3242 52.3027 49.1644V31.6716C52.3027 30.5118 51.8419 29.3994 51.0218 28.5793C50.2016 27.7592 49.0893 27.2984 47.9295 27.2984H45.7429V20.7386C45.7429 14.7102 40.8383 9.80566 34.8099 9.80566ZM28.2501 20.7386C28.2501 17.122 31.1933 14.1789 34.8099 14.1789C38.4265 14.1789 41.3697 17.122 41.3697 20.7386V27.2984H28.2501V20.7386ZM36.9965 44.1855V49.1644H32.6233V44.1855C31.8588 43.7477 31.245 43.0885 30.8627 42.2949C30.4804 41.5012 30.3477 40.6103 30.4819 39.7396C30.6162 38.869 31.0112 38.0595 31.6148 37.4178C32.2184 36.7762 33.0023 36.3325 33.8631 36.1454C34.5025 36.004 35.1655 36.008 35.8032 36.1569C36.4408 36.3059 37.0369 36.5961 37.5475 37.0062C38.058 37.4162 38.4701 37.9357 38.7531 38.5261C39.0362 39.1166 39.1832 39.7631 39.1831 40.418C39.1818 41.1827 38.9791 41.9336 38.5952 42.5951C38.2113 43.2565 37.6599 43.805 36.9965 44.1855Z" fill="#FF5B5B"/>
<circle cx="34.8402" cy="34.2289" r="32.413" stroke="#FF5B5B" stroke-width="3.63171"/>
<path d="M85.9783 11.5958H103.411V17.4065H92.3701V28.1564H101.144V33.9672H92.3701V46.4603H103.411V52.271H85.9783V11.5958ZM115.511 52.8521C112.411 52.8521 110.068 51.9805 108.48 50.2372C106.891 48.4553 106.097 45.9179 106.097 42.6252V40.3009H112.14V43.09C112.14 45.7242 113.244 47.0413 115.452 47.0413C116.537 47.0413 117.351 46.7314 117.893 46.1116C118.474 45.4531 118.765 44.4071 118.765 42.9738C118.765 41.2693 118.377 39.7779 117.602 38.4995C116.828 37.1824 115.394 35.6135 113.302 33.7928C110.668 31.4685 108.828 29.3767 107.782 27.5172C106.736 25.6191 106.213 23.4885 106.213 21.1254C106.213 17.9101 107.027 15.4309 108.654 13.6877C110.281 11.9057 112.644 11.0147 115.743 11.0147C118.803 11.0147 121.108 11.9057 122.658 13.6877C124.246 15.4309 125.04 17.9489 125.04 21.2416V22.9268H118.997V20.8349C118.997 19.4403 118.726 18.4331 118.183 17.8133C117.641 17.1547 116.847 16.8255 115.801 16.8255C113.67 16.8255 112.605 18.1232 112.605 20.7187C112.605 22.1907 112.993 23.5659 113.767 24.8443C114.581 26.1227 116.033 27.6722 118.125 29.4929C120.798 31.8172 122.638 33.9284 123.646 35.8266C124.653 37.7248 125.156 39.9522 125.156 42.5089C125.156 45.8404 124.323 48.3972 122.658 50.1791C121.031 51.9611 118.648 52.8521 115.511 52.8521ZM137.828 52.8521C134.768 52.8521 132.424 51.9805 130.797 50.2372C129.209 48.494 128.414 46.0341 128.414 42.8576V21.0092C128.414 17.8327 129.209 15.3728 130.797 13.6296C132.424 11.8863 134.768 11.0147 137.828 11.0147C140.888 11.0147 143.212 11.8863 144.801 13.6296C146.428 15.3728 147.241 17.8327 147.241 21.0092V25.3092H141.198V20.6025C141.198 18.0845 140.133 16.8255 138.002 16.8255C135.872 16.8255 134.806 18.0845 134.806 20.6025V43.3225C134.806 45.8017 135.872 47.0413 138.002 47.0413C140.133 47.0413 141.198 45.8017 141.198 43.3225V37.105H147.241V42.8576C147.241 46.0341 146.428 48.494 144.801 50.2372C143.212 51.9805 140.888 52.8521 137.828 52.8521ZM156.005 11.5958H164.663L171.287 52.271H164.895L163.733 44.1941V44.3103H156.469L155.307 52.271H149.38L156.005 11.5958ZM162.977 38.7901L160.13 18.6849H160.014L157.225 38.7901H162.977ZM174.388 11.5958H183.801C186.978 11.5958 189.36 12.448 190.948 14.1525C192.537 15.857 193.331 18.3556 193.331 21.6484V25.6578C193.331 28.9506 192.537 31.4492 190.948 33.1537C189.36 34.8581 186.978 35.7104 183.801 35.7104H180.78V52.271H174.388V11.5958ZM183.801 29.8996C184.847 29.8996 185.622 29.6091 186.126 29.028C186.668 28.447 186.939 27.4591 186.939 26.0646V21.2416C186.939 19.8471 186.668 18.8592 186.126 18.2782C185.622 17.6971 184.847 17.4065 183.801 17.4065H180.78V29.8996H183.801ZM196.802 11.5958H214.235V17.4065H203.194V28.1564H211.968V33.9672H203.194V46.4603H214.235V52.271H196.802V11.5958ZM227.218 11.5958H236.341L240.408 40.7076H240.525L244.592 11.5958H253.715V52.271H247.672V21.4741H247.556L242.907 52.271H237.561L232.912 21.4741H232.796V52.271H227.218V11.5958ZM263.424 11.5958H272.082L278.706 52.271H272.314L271.152 44.1941V44.3103H263.889L262.727 52.271H256.8L263.424 11.5958ZM270.397 38.7901L267.549 18.6849H267.433L264.644 38.7901H270.397ZM281.807 11.5958H289.826L296.043 35.9428H296.16V11.5958H301.854V52.271H295.288L287.618 22.5781H287.502V52.271H281.807V11.5958ZM306.605 11.5958H312.997V52.271H306.605V11.5958ZM322.723 11.5958H331.381L338.005 52.271H331.613L330.451 44.1941V44.3103H323.188L322.026 52.271H316.099L322.723 11.5958ZM329.696 38.7901L326.849 18.6849H326.732L323.943 38.7901H329.696Z" fill="#FF5B5B"/>
</svg>
