<svg width="24" height="23" viewBox="0 0 24 23" fill="none" xmlns="http://www.w3.org/2000/svg">
<circle cx="11.708" cy="11.4412" r="11.3638" fill="white"/>
<path d="M19.7085 6.86035C19.1319 7.12242 18.5104 7.29464 17.8665 7.377C18.5254 6.98015 19.0346 6.35118 19.2742 5.59491C18.6527 5.9693 17.9638 6.23137 17.2375 6.38113C16.646 5.73718 15.8148 5.36279 14.8714 5.36279C13.1117 5.36279 11.6741 6.80044 11.6741 8.57504C11.6741 8.82963 11.704 9.07672 11.7565 9.30884C9.09082 9.17406 6.7172 7.89366 5.13728 5.95433C4.86023 6.42605 4.70299 6.98015 4.70299 7.56419C4.70299 8.67987 5.26457 9.66826 6.13315 10.2298C5.60152 10.2298 5.10733 10.0801 4.67304 9.85545V9.87791C4.67304 11.4354 5.78123 12.7382 7.24883 13.0303C6.77764 13.1592 6.28298 13.1771 5.80369 13.0827C6.00706 13.721 6.40536 14.2795 6.94259 14.6798C7.47982 15.08 8.12898 15.3018 8.7988 15.314C7.66337 16.2129 6.25595 16.6988 4.80782 16.6918C4.55324 16.6918 4.29865 16.6768 4.04407 16.6468C5.46674 17.5604 7.15898 18.092 8.97101 18.092C14.8714 18.092 18.1136 13.195 18.1136 8.94943C18.1136 8.80716 18.1136 8.67238 18.1061 8.53012C18.7351 8.08085 19.2742 7.51178 19.7085 6.86035Z" fill="#1A1A1A"/>
</svg>
