<svg width="24" height="23" viewBox="0 0 24 23" fill="none" xmlns="http://www.w3.org/2000/svg">
<circle cx="11.876" cy="11.4412" r="11.3638" fill="white"/>
<path d="M10.6427 13.9519L14.5289 11.7055L10.6427 9.45922V13.9519ZM19.2986 8.08896C19.3959 8.44088 19.4633 8.91261 19.5082 9.51163C19.5606 10.1107 19.5831 10.6273 19.5831 11.0766L19.628 11.7055C19.628 13.3454 19.5082 14.5509 19.2986 15.3221C19.1114 15.996 18.6771 16.4303 18.0032 16.6175C17.6513 16.7149 17.0073 16.7822 16.0189 16.8272C15.0455 16.8796 14.1545 16.9021 13.3308 16.9021L12.1403 16.947C9.00289 16.947 7.04858 16.8272 6.27734 16.6175C5.60344 16.4303 5.16915 15.996 4.98196 15.3221C4.88462 14.9702 4.81723 14.4985 4.7723 13.8995C4.71989 13.3004 4.69742 12.7838 4.69742 12.3345L4.6525 11.7055C4.6525 10.0657 4.7723 8.8602 4.98196 8.08896C5.16915 7.41506 5.60344 6.98077 6.27734 6.79357C6.62927 6.69623 7.27321 6.62884 8.2616 6.58392C9.23501 6.5315 10.126 6.50904 10.9497 6.50904L12.1403 6.46411C15.2776 6.46411 17.2319 6.58392 18.0032 6.79357C18.6771 6.98077 19.1114 7.41506 19.2986 8.08896Z" fill="#1A1A1A"/>
</svg>
